{"title":"SuperTroopers(DVDRip)AviMPEG","uid":15291797,"size":1382231754,"categoryP":"video","categoryS":"movies","magnet":"?xt=urn:btih:f0ec0b722fdb795fb7c056a459e0bc08a0e40b01&amp;dn=SuperTroopers%28DVDRip%29AviMPEG&amp;tr=udp%3A%2F%2Ftracker.leechers-paradise.org%3A6969&amp;tr=udp%3A%2F%2Fzer0day.ch%3A1337&amp;tr=udp%3A%2F%2Fopen.demonii.com%3A1337&amp;tr=udp%3A%2F%2Ftracker.coppersurfer.tk%3A6969&amp;tr=udp%3A%2F%2Fexodus.desync.com%3A6969","seeders":5,"leechers":1,"uploader":"sl1pstar","files":1,"time":1468428740,"description":"SuperTroopers English DVDRip\r\n\r\nFormat                                   : AVI\r\nFormat/Info                              : Audio Video Interleave\r\nFile size                                : 1.29 GiB\r\nDuration                                 : 1h 40mn\r\nOverall bit rate                         : 1 841 Kbps\r\nMovie name                               : Super Troopers\r\nWriting application                      : Lavf52.33.0\r\nOriginal source form/Name                : SUPERTROOPERS\r\n\r\nVideo\r\nID                                       : 0\r\nFormat                                   : MPEG-4 Visual\r\nFormat profile                           :   \r\nFormat settings, Matrix                  : Default (H.263)\r\nCodec ID                                 : DX50\r\nCodec ID/Hint                            : DivX 5\r\nDuration                                 : 1h 40mn\r\nBit rate                                 : 1 382 Kbps\r\nWidth                                    : 720 pixels\r\nHeight                                   : 400 pixels\r\nDisplay aspect ratio                     : 16:9\r\nFrame rate                               : 23.976 (24000/1001) fps\r\nColor space                              : YUV\r\nChroma subsampling                       : 4:2:0\r\nBit depth                                : 8 bits\r\nScan type                                : Progressive\r\nCompression mode                         : Lossy\r\nBits/(Pixel*Frame)                       : 0.200\r\nStream size                              : 990 MiB (75%)\r\nWriting library                          : XviD 1.2.1 (UTC 2008-12-04)\r\n\r\nAudio\r\nID                                       : 1\r\nFormat                                   : AC-3\r\nFormat/Info                              : Audio Coding 3\r\nMode extension                           : CM (complete main)\r\nFormat settings, Endianness              : Big\r\nCodec ID                                 : 2000\r\nDuration                                 : 1h 40mn\r\nBit rate mode                            : Constant\r\nBit rate                                 : 448 Kbps\r\nChannel(s)                               : 6 channels\r\nChannel positions                        : Front: L C R, Side: L R, LFE\r\nSampling rate                            : 48.0 KHz\r\nFrame rate                               : 31.250 fps (1536 spf)\r\nCompression mode                         : Lossy\r\nStream size                              : 321 MiB (24%)\r\nAlignment                                : Aligned on interleaves\r\nInterleave, duration                     : 32 ms (0.77 video frame)","torrent":{"xt":"urn:btih:f0ec0b722fdb795fb7c056a459e0bc08a0e40b01","amp;dn":"SuperTroopers%28DVDRip%29AviMPEG","amp;tr":["udp%3A%2F%2Ftracker.leechers-paradise.org%3A6969","udp%3A%2F%2Fzer0day.ch%3A1337","udp%3A%2F%2Fopen.demonii.com%3A1337","udp%3A%2F%2Ftracker.coppersurfer.tk%3A6969","udp%3A%2F%2Fexodus.desync.com%3A6969"],"infoHash":"f0ec0b722fdb795fb7c056a459e0bc08a0e40b01","infoHashBuffer":{"type":"Buffer","data":[240,236,11,114,47,219,121,95,183,192,86,164,89,224,188,8,160,228,11,1]},"announce":[],"urlList":[]}}